<svg xmlns="http://www.w3.org/2000/svg" viewBox="0 0 800 600"><defs><linearGradient id="b" x2="1" y2="1"><stop stop-color="#edf5e4"/><stop offset="1" stop-color="#f7e8c5"/></linearGradient><linearGradient id="t" y2="1"><stop stop-color="#b98d52"/><stop offset="1" stop-color="#805b31"/></linearGradient><radialGradient id="e"><stop stop-color="#fffef8"/><stop offset="1" stop-color="#d8c5a5"/></radialGradient></defs><rect width="800" height="600" rx="48" fill="url(#b)"/><ellipse cx="400" cy="505" rx="280" ry="40" fill="#173f2a" opacity=".14"/><path d="M130 280Q150 220 220 205H580Q650 220 670 280L620 475Q610 515 560 525H240Q190 515 180 475Z" fill="url(#t)"/><g fill="url(#e)" stroke="#d0b994" stroke-width="3"><ellipse cx="220" cy="270" rx="50" ry="70"/><ellipse cx="310" cy="255" rx="49" ry="72"/><ellipse cx="400" cy="248" rx="50" ry="74"/><ellipse cx="490" cy="255" rx="49" ry="72"/><ellipse cx="580" cy="270" rx="50" ry="70"/><ellipse cx="250" cy="355" rx="51" ry="72"/><ellipse cx="350" cy="345" rx="50" ry="74"/><ellipse cx="450" cy="345" rx="50" ry="74"/><ellipse cx="550" cy="355" rx="51" ry="72"/></g><rect x="260" y="460" width="280" height="60" rx="15" fill="#164b32"/><text x="400" y="500" text-anchor="middle" font-family="Segoe UI,Arial" font-size="31" font-weight="800" fill="#fff">KERIET FARM</text></svg>